<svg width="72" height="72" viewBox="0 0 72 72" fill="none" xmlns="http://www.w3.org/2000/svg">
<circle opacity="0.1" cx="36" cy="36" r="36" fill="#FF4F37"/>
<path d="M42.666 25.3333H29.3327C25.3327 25.3333 22.666 27.3333 22.666 32V36.7466C22.666 37.24 23.1727 37.5466 23.6127 37.3466C24.9193 36.7466 26.426 36.52 28.0127 36.8C31.5193 37.4266 34.0927 40.68 33.9993 44.24C33.986 44.8 33.906 45.3466 33.7593 45.88C33.6527 46.2933 33.986 46.68 34.4127 46.68H42.666C46.666 46.68 49.3327 44.68 49.3327 40.0133V32C49.3327 27.3333 46.666 25.3333 42.666 25.3333ZM35.9993 39.3333C34.1593 39.3333 32.666 37.84 32.666 36C32.666 34.16 34.1593 32.6666 35.9993 32.6666C37.8393 32.6666 39.3327 34.16 39.3327 36C39.3327 37.84 37.8393 39.3333 35.9993 39.3333ZM45.666 38.6666C45.666 39.2133 45.2127 39.6666 44.666 39.6666C44.1193 39.6666 43.666 39.2133 43.666 38.6666V33.3333C43.666 32.7866 44.1193 32.3333 44.666 32.3333C45.2127 32.3333 45.666 32.7866 45.666 33.3333V38.6666Z" fill="#FF4F37"/>
<path d="M26.6663 38.6666C23.7197 38.6666 21.333 41.0533 21.333 44C21.333 45 21.613 45.9466 22.1063 46.7466C23.0263 48.2933 24.7197 49.3333 26.6663 49.3333C28.613 49.3333 30.3063 48.2933 31.2263 46.7466C31.7197 45.9466 31.9997 45 31.9997 44C31.9997 41.0533 29.613 38.6666 26.6663 38.6666ZM29.293 43.56L26.453 46.1866C26.2663 46.36 26.013 46.4533 25.773 46.4533C25.5197 46.4533 25.2663 46.36 25.0663 46.16L23.7463 44.84C23.3597 44.4533 23.3597 43.8133 23.7463 43.4266C24.133 43.04 24.773 43.04 25.1597 43.4266L25.7997 44.0666L27.933 42.0933C28.333 41.72 28.973 41.7466 29.3463 42.1466C29.7197 42.5466 29.693 43.1866 29.293 43.56Z" fill="#FF4F37"/>
</svg>
