<svg width="20" height="20" viewBox="0 0 20 20" fill="none" xmlns="http://www.w3.org/2000/svg">
<path d="M18.2115 10.9696V11.8403C18.2115 12.0755 18.0287 12.267 17.7848 12.2757H16.5135C16.052 12.2757 15.634 11.9361 15.5992 11.4833C15.5731 11.2134 15.6776 10.9609 15.8517 10.7867C16.0085 10.6213 16.2262 10.5342 16.4613 10.5342H17.7761C18.0287 10.5429 18.2115 10.7345 18.2115 10.9696Z" fill="#B0B7C3"/>
<path d="M15.1984 10.1423C14.763 10.569 14.554 11.2046 14.7281 11.8664C14.9545 12.6763 15.747 13.19 16.5829 13.19H17.3405C17.8194 13.19 18.2112 13.5819 18.2112 14.0608V14.2262C18.2112 16.0287 16.7396 17.5004 14.9371 17.5004H4.94062C3.13812 17.5004 1.6665 16.0287 1.6665 14.2262V8.36592C1.6665 7.29486 2.18026 6.34571 2.97267 5.75359C3.52126 5.33561 4.20046 5.0918 4.94062 5.0918H14.9371C16.7396 5.0918 18.2112 6.56341 18.2112 8.36592V8.74906C18.2112 9.22798 17.8194 9.61983 17.3405 9.61983H16.4523C15.9646 9.61983 15.5205 9.8114 15.1984 10.1423Z" fill="#B0B7C3"/>
<path d="M13.6402 3.28957C13.8753 3.52468 13.675 3.89041 13.3441 3.89041L6.65654 3.8817C6.2734 3.8817 6.07312 3.41148 6.35177 3.14154L7.76243 1.72218C8.95539 0.537921 10.8885 0.537921 12.0815 1.72218L13.6053 3.26345C13.614 3.27216 13.6315 3.28087 13.6402 3.28957Z" fill="#B0B7C3"/>
</svg>
