<svg width="20" height="20" viewBox="0 0 20 20" fill="none" xmlns="http://www.w3.org/2000/svg">
<path d="M15.7597 3.31129C15.8667 3.47935 15.6835 3.67514 15.4892 3.631C15.1093 3.51783 14.689 3.46125 14.2606 3.46125H11.5991C11.4681 3.46125 11.3447 3.39963 11.266 3.29489L10.3402 2.06283C10.2263 1.90152 10.3339 1.66675 10.5314 1.66675H12.7571C14.0189 1.66675 15.1304 2.32209 15.7597 3.31129Z" fill="#B0B7C3"/>
<path d="M16.3299 5.33658C15.9823 5.086 15.5862 4.90008 15.1578 4.795C14.8668 4.71416 14.5677 4.67375 14.2606 4.67375H11.2536C10.7847 4.67375 10.7524 4.63333 10.5018 4.30191L9.37016 2.79841C8.84475 2.09516 8.4325 1.66675 7.11491 1.66675H5.23958C3.26725 1.66675 1.66675 3.26725 1.66675 5.23958V14.2606C1.66675 16.2329 3.26725 17.8334 5.23958 17.8334H14.2606C16.2329 17.8334 17.8334 16.2329 17.8334 14.2606V8.24658C17.8334 7.04216 17.2433 5.98325 16.3299 5.33658ZM11.682 13.2582H7.81008C7.49483 13.2582 7.25233 13.0077 7.25233 12.6924C7.25233 12.3852 7.49483 12.1266 7.81008 12.1266H11.682C11.9972 12.1266 12.2478 12.3852 12.2478 12.6924C12.2478 13.0077 11.9972 13.2582 11.682 13.2582Z" fill="#B0B7C3"/>
</svg>
