<svg width="20" height="20" viewBox="0 0 20 20" fill="none" xmlns="http://www.w3.org/2000/svg">
<path d="M9.9999 3.87506C6.01657 3.87506 2.7749 7.11673 2.7749 11.1001C2.7749 15.0834 6.01657 18.3334 9.9999 18.3334C13.9832 18.3334 17.2249 15.0917 17.2249 11.1084C17.2249 7.12506 13.9832 3.87506 9.9999 3.87506ZM10.6249 10.8334C10.6249 11.1751 10.3416 11.4584 9.9999 11.4584C9.65824 11.4584 9.3749 11.1751 9.3749 10.8334V6.66673C9.3749 6.32506 9.65824 6.04173 9.9999 6.04173C10.3416 6.04173 10.6249 6.32506 10.6249 6.66673V10.8334Z" fill="#B0B7C3"/>
<path d="M12.4084 2.87504H7.5917C7.25837 2.87504 6.9917 2.60837 6.9917 2.27504C6.9917 1.9417 7.25837 1.6667 7.5917 1.6667H12.4084C12.7417 1.6667 13.0084 1.93337 13.0084 2.2667C13.0084 2.60004 12.7417 2.87504 12.4084 2.87504Z" fill="#B0B7C3"/>
</svg>
