<svg width="24" height="24" viewBox="0 0 24 24" fill="none" xmlns="http://www.w3.org/2000/svg">
<path d="M11.94 1.21001L9.52995 6.82001H7.11995C6.71995 6.82001 6.32995 6.85001 5.94995 6.93001L6.94995 4.53001L6.98995 4.44001L7.04995 4.28001C7.07995 4.21001 7.09995 4.15001 7.12995 4.10001C8.28995 1.41001 9.58995 0.570014 11.94 1.21001Z" fill="#B0B7C3"/>
<path d="M18.73 7.09002L18.71 7.08002C18.11 6.91002 17.5 6.82002 16.88 6.82002H10.62L12.87 1.59002L12.9 1.52002C13.04 1.57002 13.19 1.64002 13.34 1.69002L15.55 2.62002C16.78 3.13002 17.64 3.66002 18.17 4.30002C18.26 4.42002 18.34 4.53002 18.42 4.66002C18.51 4.80002 18.58 4.94002 18.62 5.09002C18.66 5.18002 18.69 5.26002 18.71 5.35002C18.86 5.86002 18.87 6.44002 18.73 7.09002Z" fill="#B0B7C3"/>
<path d="M12.52 16.66H12.77C13.07 16.66 13.32 16.39 13.32 16.06C13.32 15.64 13.2 15.58 12.94 15.48L12.52 15.33V16.66Z" fill="#B0B7C3"/>
<path d="M18.29 8.52001C17.84 8.39001 17.37 8.32001 16.88 8.32001H7.11999C6.43999 8.32001 5.79999 8.45001 5.19999 8.71001C3.45999 9.46001 2.23999 11.19 2.23999 13.2V15.15C2.23999 15.39 2.25999 15.62 2.28999 15.86C2.50999 19.04 4.20999 20.74 7.38999 20.95C7.61999 20.98 7.84999 21 8.09999 21H15.9C19.6 21 21.55 19.24 21.74 15.74C21.75 15.55 21.76 15.35 21.76 15.15V13.2C21.76 10.99 20.29 9.13001 18.29 8.52001ZM13.28 14.5C13.74 14.66 14.36 15 14.36 16.06C14.36 16.97 13.65 17.7 12.77 17.7H12.52V17.92C12.52 18.21 12.29 18.44 12 18.44C11.71 18.44 11.48 18.21 11.48 17.92V17.7H11.39C10.43 17.7 9.63999 16.89 9.63999 15.89C9.63999 15.6 9.86999 15.37 10.16 15.37C10.45 15.37 10.68 15.6 10.68 15.89C10.68 16.31 11 16.66 11.39 16.66H11.48V14.97L10.72 14.7C10.26 14.54 9.63999 14.2 9.63999 13.14C9.63999 12.23 10.35 11.5 11.23 11.5H11.48V11.28C11.48 10.99 11.71 10.76 12 10.76C12.29 10.76 12.52 10.99 12.52 11.28V11.5H12.61C13.57 11.5 14.36 12.31 14.36 13.31C14.36 13.6 14.13 13.83 13.84 13.83C13.55 13.83 13.32 13.6 13.32 13.31C13.32 12.89 13 12.54 12.61 12.54H12.52V14.23L13.28 14.5Z" fill="#B0B7C3"/>
<path d="M10.6801 13.14C10.6801 13.56 10.8001 13.62 11.0601 13.72L11.4801 13.87V12.54H11.2301C10.9201 12.54 10.6801 12.81 10.6801 13.14Z" fill="#B0B7C3"/>
</svg>
