<svg width="24" height="24" viewBox="0 0 24 24" fill="none" xmlns="http://www.w3.org/2000/svg">
<path d="M20.83 7.01002L14.28 1.77002C13 0.750018 11 0.740018 9.72996 1.76002L3.17996 7.01002C2.23996 7.76002 1.66996 9.26002 1.86996 10.44L3.12996 17.98C3.41996 19.67 4.98996 21 6.69996 21H17.3C18.99 21 20.59 19.64 20.88 17.97L22.14 10.43C22.32 9.26002 21.75 7.76002 20.83 7.01002ZM12.75 17C12.75 17.41 12.41 17.75 12 17.75C11.59 17.75 11.25 17.41 11.25 17V14C11.25 13.59 11.59 13.25 12 13.25C12.41 13.25 12.75 13.59 12.75 14V17Z" fill="#377DFF"/>
</svg>
