<svg width="72" height="72" viewBox="0 0 72 72" fill="none" xmlns="http://www.w3.org/2000/svg">
<circle opacity="0.1" cx="36" cy="36" r="36" fill="#377DFF"/>
<path d="M44.8933 22.6667H42.3599C39.4533 22.6667 37.9199 24.2 37.9199 27.1067V29.64C37.9199 32.5467 39.4533 34.08 42.3599 34.08H44.8933C47.7999 34.08 49.3333 32.5467 49.3333 29.64V27.1067C49.3333 24.2 47.7999 22.6667 44.8933 22.6667Z" fill="#377DFF"/>
<path d="M29.6533 37.9067H27.12C24.2 37.9067 22.6666 39.44 22.6666 42.3467V44.88C22.6666 47.8 24.2 49.3333 27.1066 49.3333H29.64C32.5466 49.3333 34.08 47.8 34.08 44.8933V42.36C34.0933 39.44 32.56 37.9067 29.6533 37.9067Z" fill="#377DFF"/>
<path d="M28.3866 34.1067C31.5457 34.1067 34.1066 31.5458 34.1066 28.3867C34.1066 25.2276 31.5457 22.6667 28.3866 22.6667C25.2276 22.6667 22.6666 25.2276 22.6666 28.3867C22.6666 31.5458 25.2276 34.1067 28.3866 34.1067Z" fill="#377DFF"/>
<path d="M43.6133 49.3334C46.7724 49.3334 49.3333 46.7724 49.3333 43.6134C49.3333 40.4543 46.7724 37.8934 43.6133 37.8934C40.4542 37.8934 37.8933 40.4543 37.8933 43.6134C37.8933 46.7724 40.4542 49.3334 43.6133 49.3334Z" fill="#377DFF"/>
</svg>
