<svg width="72" height="72" viewBox="0 0 72 72" fill="none" xmlns="http://www.w3.org/2000/svg">
<circle opacity="0.1" cx="36" cy="36" r="36" fill="#DE13FF"/>
<path d="M43.3734 30.36C43.2801 30.3467 43.1867 30.3467 43.0934 30.36C41.0267 30.2934 39.3867 28.6 39.3867 26.52C39.3867 24.4 41.1067 22.6667 43.2401 22.6667C45.3601 22.6667 47.0934 24.3867 47.0934 26.52C47.0801 28.6 45.4401 30.2934 43.3734 30.36Z" fill="#DE13FF"/>
<path d="M47.72 39.6C46.2266 40.6 44.1333 40.9733 42.2 40.72C42.7066 39.6267 42.9733 38.4133 42.9866 37.1333C42.9866 35.8 42.6933 34.5333 42.1333 33.4267C44.1066 33.16 46.2 33.5333 47.7066 34.5333C49.8133 35.92 49.8133 38.2 47.72 39.6Z" fill="#DE13FF"/>
<path d="M28.5868 30.36C28.6801 30.3467 28.7735 30.3467 28.8668 30.36C30.9335 30.2934 32.5735 28.6 32.5735 26.52C32.5735 24.3867 30.8535 22.6667 28.7201 22.6667C26.6001 22.6667 24.8801 24.3867 24.8801 26.52C24.8801 28.6 26.5201 30.2934 28.5868 30.36Z" fill="#DE13FF"/>
<path d="M28.7332 37.1333C28.7332 38.4267 29.0132 39.6533 29.5199 40.76C27.6399 40.96 25.6799 40.56 24.2399 39.6133C22.1332 38.2133 22.1332 35.9333 24.2399 34.5333C25.6666 33.5733 27.6799 33.1867 29.5732 33.4C29.0266 34.52 28.7332 35.7867 28.7332 37.1333Z" fill="#DE13FF"/>
<path d="M36.1599 41.16C36.0532 41.1467 35.9332 41.1467 35.8132 41.16C33.3599 41.08 31.3999 39.0667 31.3999 36.5867C31.4132 34.0533 33.4532 32 35.9999 32C38.5332 32 40.5866 34.0533 40.5866 36.5867C40.5732 39.0667 38.6266 41.08 36.1599 41.16Z" fill="#DE13FF"/>
<path d="M31.8267 43.92C29.8133 45.2667 29.8133 47.48 31.8267 48.8134C34.12 50.3467 37.88 50.3467 40.1733 48.8134C42.1867 47.4667 42.1867 45.2534 40.1733 43.92C37.8933 42.3867 34.1333 42.3867 31.8267 43.92Z" fill="#DE13FF"/>
</svg>
