<svg width="72" height="72" viewBox="0 0 72 72" fill="none" xmlns="http://www.w3.org/2000/svg">
<circle opacity="0.1" cx="36" cy="36" r="36" fill="#086420"/>
<path d="M46.9987 26.98L38.2867 21.9493C36.8641 21.128 35.1041 21.128 33.6667 21.9493L24.9694 26.98C23.5467 27.8013 22.6667 29.3266 22.6667 30.984V41.016C22.6667 42.6586 23.5467 44.184 24.9694 45.02L33.6814 50.0506C35.1041 50.872 36.8641 50.872 38.3014 50.0506L47.0134 45.02C48.4361 44.1986 49.3161 42.6733 49.3161 41.016V30.984C49.3014 29.3266 48.4214 27.816 46.9987 26.98ZM35.9841 29.1653C37.8761 29.1653 39.4014 30.6906 39.4014 32.5826C39.4014 34.4746 37.8761 36 35.9841 36C34.0921 36 32.5667 34.4746 32.5667 32.5826C32.5667 30.7053 34.0921 29.1653 35.9841 29.1653ZM39.9147 42.8346H32.0534C30.8654 42.8346 30.1761 41.5146 30.8361 40.532C31.8334 39.0506 33.7694 38.0533 35.9841 38.0533C38.1987 38.0533 40.1347 39.0506 41.1321 40.532C41.7921 41.5 41.0881 42.8346 39.9147 42.8346Z" fill="#086420"/>
</svg>
