<svg width="81" height="60" viewBox="0 0 81 60" fill="none" xmlns="http://www.w3.org/2000/svg">
<g clip-path="url(#clip0_24:279)">
<path d="M2.50574 58.2029H4.40306V58.6692H1.79126V58.2505L3.56892 55.868H1.81177V55.3983H4.3005V55.8203L2.50574 58.2029Z" fill="#086420"/>
<path d="M9.26773 58.6794C9.24722 58.5807 9.23012 58.4922 9.21987 58.4173C9.20961 58.3424 9.21987 58.2675 9.19936 58.1892C9.08462 58.3502 8.93658 58.4848 8.76519 58.5841C8.58964 58.6889 8.38874 58.7442 8.18403 58.744C8.04317 58.7537 7.90178 58.7355 7.76801 58.6906C7.63423 58.6456 7.51072 58.5747 7.4046 58.482C7.31181 58.3869 7.23989 58.2736 7.1934 58.1494C7.14691 58.0252 7.12686 57.8927 7.13453 57.7604C7.13055 57.6152 7.16396 57.4714 7.23158 57.3427C7.2992 57.214 7.39877 57.1047 7.52083 57.0252C7.82893 56.8383 8.18598 56.747 8.5464 56.7631H9.19594V56.4227C9.20044 56.3388 9.18725 56.2549 9.15722 56.1763C9.1272 56.0978 9.08099 56.0263 9.02159 55.9666C8.95359 55.9074 8.87447 55.8621 8.7888 55.8335C8.70313 55.8049 8.61261 55.7934 8.52248 55.7999C8.35334 55.7917 8.18661 55.8422 8.05071 55.9428C7.99714 55.9824 7.95331 56.0337 7.92252 56.0926C7.89172 56.1516 7.87477 56.2167 7.87294 56.2832H7.30546C7.30389 56.1546 7.33428 56.0277 7.39393 55.9137C7.45358 55.7996 7.54062 55.7021 7.64732 55.6297C7.90937 55.4239 8.23695 55.3189 8.57034 55.3335C8.89419 55.3186 9.21284 55.4187 9.46942 55.6161C9.58502 55.7166 9.67594 55.8423 9.7352 55.9833C9.79446 56.1243 9.82049 56.2769 9.81128 56.4295V58.0054C9.81097 58.1192 9.81782 58.2329 9.83179 58.3458C9.8432 58.4543 9.86495 58.5614 9.89675 58.6657L9.26773 58.6794ZM8.27292 58.2437C8.48109 58.2466 8.68554 58.1886 8.86092 58.0769C9.015 57.9921 9.13555 57.8577 9.20277 57.6957V57.1817H8.5464C8.3374 57.1719 8.1316 57.2358 7.96524 57.3621C7.89931 57.4122 7.84566 57.4765 7.80835 57.5502C7.77104 57.6239 7.75104 57.7051 7.74987 57.7876C7.74735 57.8507 7.75823 57.9136 7.78179 57.9723C7.80536 58.0309 7.84107 58.084 7.88662 58.128C7.99695 58.2121 8.1343 58.2532 8.27292 58.2437Z" fill="#086420"/>
<path d="M13.3803 55.4084L13.4214 55.8373C13.5254 55.6846 13.6665 55.5605 13.8316 55.4765C14.0091 55.386 14.2066 55.3416 14.4059 55.3472C14.6045 55.3416 14.8005 55.3937 14.97 55.4969C15.13 55.6086 15.2499 55.7685 15.3118 55.953C15.4095 55.7719 15.5519 55.6184 15.7255 55.5072C15.9042 55.398 16.1107 55.3425 16.3203 55.3472C16.4694 55.3397 16.6182 55.3665 16.7551 55.4255C16.8921 55.4845 17.0135 55.5742 17.11 55.6876C17.3251 55.9832 17.4291 56.3445 17.404 56.7087V58.6658H16.816V56.7018C16.8363 56.4628 16.7774 56.2237 16.6485 56.0211C16.586 55.9522 16.5087 55.8983 16.4222 55.8635C16.3357 55.8287 16.2424 55.8139 16.1494 55.8203C16.0563 55.8172 15.9636 55.8345 15.878 55.8709C15.7923 55.9074 15.7158 55.9621 15.6537 56.0313C15.524 56.1814 15.4451 56.3684 15.4281 56.5657V58.6692H14.8298V56.7053C14.8521 56.4651 14.7905 56.2247 14.6555 56.0245C14.5964 55.9524 14.521 55.8953 14.4354 55.858C14.3498 55.8207 14.2565 55.8043 14.1632 55.8101C14.0051 55.8042 13.8486 55.8431 13.7119 55.9224C13.5945 55.9998 13.501 56.1082 13.4419 56.2355V58.659H12.8436V55.388L13.3803 55.4084Z" fill="#086420"/>
<path d="M20.3201 57.0116C20.3032 56.5804 20.4428 56.1575 20.7132 55.8203C20.8505 55.6724 21.0171 55.5544 21.2024 55.4737C21.3877 55.393 21.5878 55.3514 21.7901 55.3514C21.9923 55.3514 22.1924 55.393 22.3777 55.4737C22.5631 55.5544 22.7296 55.6724 22.8669 55.8203C23.1397 56.1578 23.2805 56.5821 23.2635 57.015V57.0831C23.281 57.517 23.1402 57.9426 22.8669 58.2812C22.7299 58.4289 22.5637 58.5469 22.3786 58.6275C22.1936 58.7082 21.9938 58.7499 21.7918 58.7499C21.5898 58.7499 21.39 58.7082 21.2049 58.6275C21.0199 58.5469 20.8536 58.4289 20.7166 58.2812C20.4434 57.944 20.3024 57.5194 20.3201 57.0865V57.0116ZM20.9183 57.0797C20.9055 57.3807 20.9816 57.6789 21.1371 57.9374C21.2101 58.0427 21.3076 58.1288 21.4213 58.1883C21.5351 58.2477 21.6616 58.2788 21.7901 58.2788C21.9185 58.2788 22.0451 58.2477 22.1588 58.1883C22.2726 58.1288 22.3701 58.0427 22.443 57.9374C22.5998 57.6793 22.677 57.3811 22.6652 57.0797V57.0116C22.6756 56.7114 22.5984 56.4147 22.443 56.1573C22.3736 56.0478 22.2763 55.9586 22.161 55.8988C22.0457 55.839 21.9165 55.8108 21.7867 55.8169C21.6578 55.8109 21.5296 55.8393 21.4154 55.8992C21.3012 55.959 21.2052 56.0481 21.1371 56.1573C20.983 56.4151 20.907 56.7118 20.9183 57.0116V57.0797Z" fill="#086420"/>
<path d="M26.706 55.4084L26.7505 55.8951C26.8519 55.7288 26.9928 55.5897 27.1607 55.4901C27.3327 55.3937 27.5274 55.3444 27.7248 55.3472C27.8763 55.3376 28.0281 55.3603 28.1702 55.4137C28.3123 55.4671 28.4413 55.55 28.5487 55.6569C28.7638 55.9275 28.8676 56.2694 28.8392 56.6133V58.6793H28.241V56.6371C28.2614 56.4179 28.2006 56.1988 28.07 56.0211C28.0003 55.9564 27.9178 55.9069 27.8277 55.8758C27.7376 55.8448 27.642 55.8328 27.547 55.8407C27.383 55.8364 27.2206 55.8739 27.0752 55.9496C26.948 56.0241 26.843 56.131 26.771 56.2593V58.6896H26.1727V55.4186L26.706 55.4084Z" fill="#086420"/>
<path d="M33.9056 58.6794C33.885 58.5807 33.8714 58.4922 33.8577 58.4173C33.8485 58.3462 33.844 58.2745 33.844 58.2029C33.728 58.3639 33.5788 58.4985 33.4064 58.5977C33.2322 58.7026 33.0323 58.7579 32.8287 58.7577C32.6873 58.7674 32.5454 58.7493 32.411 58.7043C32.2767 58.6593 32.1526 58.5884 32.0458 58.4956C31.9536 58.4001 31.882 58.2868 31.8355 58.1627C31.7891 58.0386 31.7687 57.9063 31.7758 57.774C31.7714 57.6291 31.8043 57.4856 31.8713 57.3569C31.9383 57.2282 32.0372 57.1187 32.1587 57.0388C32.4663 56.8507 32.8237 56.7594 33.1842 56.7767H33.844V56.4363C33.8479 56.3522 33.834 56.2682 33.8034 56.1896C33.7728 56.1111 33.7261 56.0398 33.6663 55.9803C33.5969 55.9214 33.5164 55.8769 33.4295 55.8494C33.3426 55.8219 33.2511 55.812 33.1603 55.8203C32.9923 55.8126 32.8268 55.8632 32.692 55.9632C32.6379 56.0027 32.5936 56.0538 32.5622 56.1128C32.5308 56.1717 32.5133 56.2369 32.5108 56.3036H31.9433C31.9426 56.1752 31.9734 56.0486 32.033 55.9347C32.0925 55.8208 32.1791 55.7231 32.2851 55.6501C32.5475 55.4449 32.8749 55.3399 33.2082 55.354C33.5323 55.3369 33.8517 55.4373 34.1073 55.6365C34.2233 55.7367 34.3145 55.8623 34.3738 56.0034C34.4331 56.1445 34.4588 56.2973 34.4491 56.45V58.0259C34.4477 58.1396 34.4534 58.2532 34.4662 58.3662C34.4788 58.4748 34.5017 58.5819 34.5346 58.6862L33.9056 58.6794ZM32.9142 58.2437C33.1213 58.2466 33.3246 58.1885 33.4987 58.0769C33.6517 57.9907 33.7718 57.8567 33.8406 57.6957V57.1817H33.1603C32.9523 57.1718 32.7476 57.2358 32.5826 57.3621C32.5162 57.412 32.462 57.4762 32.4241 57.5499C32.3862 57.6236 32.3656 57.7048 32.3638 57.7876C32.3619 57.8506 32.3731 57.9134 32.3966 57.972C32.4201 58.0305 32.4555 58.0836 32.5005 58.128C32.6185 58.2177 32.7665 58.2591 32.9142 58.2437Z" fill="#086420"/>
<path d="M38.5343 57.7161L38.5856 57.9442H38.6061L38.6642 57.7161L39.4197 55.4084H40.0282L38.8215 58.6794H38.3668L37.1429 55.4084H37.7583L38.5343 57.7161Z" fill="#086420"/>
<path d="M43.3921 54.5677H42.7938V53.9619H43.3921V54.5677ZM43.3921 58.6793H42.7938V55.4084H43.3921V58.6793Z" fill="#086420"/>
<path d="M47.4944 57.4677L47.6004 57.8795H47.6209L48.4277 55.4084H49.1114L47.7268 59.1797C47.6522 59.3921 47.536 59.5876 47.385 59.7549C47.3035 59.8377 47.2053 59.9024 47.0969 59.9446C46.9884 59.9868 46.8723 60.0057 46.756 60C46.694 59.9999 46.6323 59.9942 46.5714 59.983C46.5138 59.9761 46.4568 59.9659 46.4004 59.9524L46.4585 59.4826H46.5679H46.7286C46.7906 59.4823 46.8515 59.4665 46.9058 59.4368C46.9601 59.4071 47.0062 59.3644 47.0397 59.3125C47.1234 59.1966 47.1923 59.0708 47.2448 58.9381L47.385 58.5977L46.1509 55.4084H46.8346L47.4944 57.4677Z" fill="#086420"/>
<path d="M56.352 54.6188V55.4084H56.9742V55.8475H56.352V57.8353C56.3432 57.8955 56.3472 57.9569 56.3636 58.0155C56.3801 58.0742 56.4088 58.1287 56.4477 58.1756C56.4812 58.2078 56.5209 58.2329 56.5644 58.2492C56.6079 58.2656 56.6542 58.273 56.7007 58.2709C56.7394 58.2737 56.7782 58.2737 56.8169 58.2709L56.9229 58.2403L57.005 58.6487C56.9468 58.6934 56.8789 58.7237 56.8067 58.7372C56.7233 58.7613 56.6371 58.7739 56.5503 58.7747C56.4434 58.7795 56.3366 58.7624 56.2366 58.7243C56.1366 58.6862 56.0455 58.6281 55.9691 58.5534C55.8112 58.363 55.7339 58.1189 55.7538 57.8727V55.8849H55.2307V55.4459H55.7538V54.6562L56.352 54.6188Z" fill="#086420"/>
<path d="M61.8115 58.6794C61.7944 58.5807 61.7773 58.4922 61.7671 58.4173C61.755 58.3419 61.7481 58.2657 61.7465 58.1893C61.6305 58.3503 61.4813 58.4849 61.309 58.5841C61.1348 58.6893 60.9349 58.7446 60.7312 58.7441C60.4458 58.763 60.1643 58.6688 59.9484 58.482C59.8567 58.3863 59.7858 58.2728 59.7399 58.1487C59.694 58.0246 59.6742 57.8924 59.6817 57.7604C59.677 57.6158 59.7094 57.4725 59.7758 57.3438C59.8422 57.2152 59.9404 57.1055 60.0612 57.0252C60.3691 56.8379 60.7263 56.7467 61.0868 56.7631H61.7363V56.4228C61.741 56.3385 61.7276 56.2542 61.6969 56.1756C61.6663 56.0969 61.6191 56.0257 61.5585 55.9667C61.422 55.8478 61.2437 55.7878 61.0628 55.7999C60.8937 55.7917 60.727 55.8423 60.5911 55.9428C60.5375 55.9825 60.4937 56.0337 60.4629 56.0927C60.4321 56.1516 60.4151 56.2168 60.4133 56.2832H59.8424C59.8402 56.1545 59.8703 56.0274 59.93 55.9133C59.9897 55.7991 60.0771 55.7017 60.1843 55.6297C60.4444 55.4228 60.7713 55.3175 61.1039 55.3336C61.4289 55.3178 61.7489 55.418 62.0064 55.6161C62.122 55.7167 62.2129 55.8423 62.2721 55.9833C62.3314 56.1243 62.3574 56.277 62.3482 56.4296V58.0055C62.3482 58.1246 62.3482 58.2369 62.3482 58.3458C62.3608 58.4544 62.3837 58.5615 62.4166 58.6658L61.8115 58.6794ZM60.8201 58.2437C61.0283 58.2466 61.2327 58.1887 61.4081 58.0769C61.5614 57.9911 61.6816 57.857 61.75 57.6957V57.1818H61.0663C60.8572 57.1719 60.6514 57.2358 60.4851 57.3622C60.4192 57.4122 60.3655 57.4765 60.3282 57.5502C60.2909 57.6239 60.2709 57.7051 60.2697 57.7876C60.2672 57.8507 60.2781 57.9137 60.3016 57.9723C60.3252 58.031 60.3609 58.084 60.4065 58.128C60.5236 58.2194 60.6723 58.261 60.8201 58.2437Z" fill="#086420"/>
<path d="M65.8419 54.8605L65.5342 55.9054H65.2402V54.275H65.8385L65.8419 54.8605Z" fill="#086420"/>
<path d="M69.5785 58.6793H68.9802V53.9619H69.5785V58.6793Z" fill="#086420"/>
<path d="M73.3253 54.5677H72.7271V53.9619H73.3253V54.5677ZM73.3253 58.6793H72.7271V55.4084H73.3253V58.6793Z" fill="#086420"/>
<path d="M76.9558 55.4085L77.0002 55.8373C77.103 55.6847 77.243 55.5606 77.407 55.4765C77.5857 55.386 77.7844 55.3416 77.9848 55.3472C78.1823 55.3423 78.3769 55.3943 78.5454 55.497C78.7052 55.609 78.8249 55.7687 78.8873 55.953C78.9847 55.7728 79.1257 55.6196 79.2975 55.5072C79.4766 55.3989 79.6829 55.3434 79.8924 55.3472C80.0419 55.3397 80.1912 55.3664 80.3287 55.4255C80.4662 55.4845 80.5883 55.5741 80.6855 55.6876C80.8993 55.9836 81.0021 56.3449 80.976 56.7087V58.6658H80.3778V56.7018C80.3996 56.4627 80.3407 56.2231 80.2103 56.0211C80.1485 55.9522 80.0717 55.8983 79.9858 55.8635C79.8999 55.8287 79.8071 55.8139 79.7146 55.8203C79.621 55.8171 79.5278 55.8344 79.4416 55.8708C79.3554 55.9073 79.2782 55.9621 79.2155 56.0313C79.0868 56.1818 79.0091 56.3687 78.9933 56.5657V58.6692H78.3916V56.7053C78.4129 56.4657 78.3527 56.2259 78.2207 56.0245C78.1607 55.9526 78.0846 55.8956 77.9985 55.8584C77.9124 55.8211 77.8187 55.8046 77.725 55.8101C77.5679 55.8037 77.4124 55.8427 77.2771 55.9224C77.1588 55.9988 77.065 56.1075 77.0071 56.2355V58.659H76.4088V55.388L76.9558 55.4085Z" fill="#086420"/>
<path d="M4.20118 19.8547L0.00231934 24.0353L4.20118 28.2158L8.40004 24.0353L4.20118 19.8547Z" fill="#086420"/>
<path d="M1.80151 30.2144H6.58753V50.8407H1.80151V30.2144Z" fill="#086420"/>
<path d="M41.5495 34.7515V38.9959C41.1632 38.9653 40.8658 38.9346 40.5239 38.9346C37.9805 38.9346 36.2917 40.3199 36.2917 43.3594V50.8475H31.663V34.9864H36.0729V37.0796C37.1977 35.548 39.0916 34.7515 41.5495 34.7515Z" fill="#086420"/>
<path d="M42.9683 42.9136C42.9683 38.1484 46.6672 34.7448 51.7301 34.7448C56.793 34.7448 60.4612 38.1484 60.4612 42.9136C60.4612 47.6787 56.7896 51.0824 51.7301 51.0824C46.6706 51.0824 42.9683 47.6889 42.9683 42.9136ZM55.7845 42.9136C55.7845 40.1906 54.0377 38.5228 51.7301 38.5228C49.4226 38.5228 47.6449 40.1736 47.6449 42.9136C47.6449 45.6535 49.4226 47.3043 51.7301 47.3043C54.0377 47.3043 55.7845 45.6535 55.7845 42.9136Z" fill="#086420"/>
<path d="M22.7849 36.6678C21.6294 35.371 19.9748 34.7515 18.0194 34.7515C13.5205 34.7515 10.0575 37.934 10.0575 42.9204C10.0575 47.9067 13.5205 51.0892 18.0194 51.0892C20.1526 51.0892 21.8379 50.4084 22.9934 49.0266V50.8543H27.4034V23.6556L22.7849 21.3683V36.6678ZM18.8193 47.3111C16.5118 47.3111 14.7341 45.6603 14.7341 42.9204C14.7341 40.1804 16.5118 38.5296 18.8193 38.5296C21.1269 38.5296 22.8738 40.1804 22.8738 42.9204C22.8738 45.6603 21.0995 47.3111 18.8193 47.3111Z" fill="#086420"/>
<path d="M73.7799 41.7052L80.4086 34.9864H74.9046L68.1564 41.3512V21.3478L63.5378 23.6351V50.8407H68.1564V46.8039L70.375 44.6222L75.4072 50.8407H81L73.7799 41.7052Z" fill="#086420"/>
<path d="M45.4501 23.482L22.7849 12.2464V16.9775L45.4501 28.2131L68.1564 16.9571V12.2226L45.4501 23.482Z" fill="#086420"/>
<path d="M25.0275 10.0068L44.5818 21.1674L25.0275 3.54321V10.0068Z" fill="#8CC800"/>
<path d="M29.5366 5.0034V0L44.5818 19.6324L29.5366 5.0034Z" fill="#8CC800"/>
<path d="M65.8694 10.0068L46.3185 21.1674L65.8694 3.54321V10.0068Z" fill="#8CC800"/>
<path d="M61.3637 5.0034V0L46.3185 19.6324L61.3637 5.0034Z" fill="#8CC800"/>
</g>
<defs>
<clipPath id="clip0_24:279">
<rect width="81" height="60" fill="white"/>
</clipPath>
</defs>
</svg>
