<svg width="72" height="72" viewBox="0 0 72 72" fill="none" xmlns="http://www.w3.org/2000/svg">
<circle opacity="0.1" cx="36" cy="36" r="36" fill="#377DFF"/>
<path d="M51.334 35.8266V38.5733C51.334 39.32 50.7206 39.9333 49.9606 39.9333H47.3873C45.9473 39.9333 44.6273 38.88 44.5073 37.44C44.4273 36.6 44.7473 35.8133 45.3073 35.2666C45.8006 34.76 46.4806 34.4666 47.2273 34.4666H49.9606C50.7206 34.4666 51.334 35.08 51.334 35.8266Z" fill="#377DFF"/>
<path d="M42.507 37.6134C42.387 36.2134 42.8937 34.84 43.907 33.84C44.7603 32.9734 45.947 32.4667 47.227 32.4667H47.987C48.3603 32.4667 48.667 32.16 48.6137 31.7867C48.2537 29.2 46.0137 27.2 43.3337 27.2H30.0003C27.0537 27.2 24.667 29.5867 24.667 32.5334V41.8667C24.667 44.8134 27.0537 47.2 30.0003 47.2H43.3337C46.027 47.2 48.2537 45.2 48.6137 42.6134C48.667 42.24 48.3603 41.9334 47.987 41.9334H47.387C44.8537 41.9334 42.7203 40.04 42.507 37.6134ZM39.3337 34.8667H31.3337C30.787 34.8667 30.3337 34.4267 30.3337 33.8667C30.3337 33.3067 30.787 32.8667 31.3337 32.8667H39.3337C39.8803 32.8667 40.3337 33.32 40.3337 33.8667C40.3337 34.4134 39.8803 34.8667 39.3337 34.8667Z" fill="#377DFF"/>
<path d="M40.9472 24.3066C41.2939 24.6666 40.9872 25.2 40.4805 25.2H30.0405C28.5872 25.2 27.2272 25.6266 26.0939 26.36C25.5739 26.6933 24.8672 26.3333 25.1205 25.76C25.8672 24.0133 27.6139 22.8 29.6272 22.8H37.1205C38.6672 22.8 40.0405 23.3466 40.9472 24.3066Z" fill="#377DFF"/>
</svg>
