<svg width="20" height="20" viewBox="0 0 20 20" fill="none" xmlns="http://www.w3.org/2000/svg">
<path d="M18.3335 4.04165V13.95C18.3335 14.7583 17.6751 15.5 16.8668 15.6L16.6085 15.6333C15.2418 15.8166 13.3168 16.3833 11.7668 17.0333C11.2251 17.2583 10.6251 16.85 10.6251 16.2583V4.66665C10.6251 4.35831 10.8001 4.07498 11.0751 3.92498C12.6001 3.09998 14.9085 2.36665 16.4751 2.23331H16.5251C17.5251 2.23331 18.3335 3.04165 18.3335 4.04165Z" fill="#B0B7C3"/>
<path d="M8.92499 3.92499C7.39999 3.09999 5.09166 2.36666 3.52499 2.23333H3.46666C2.46666 2.23333 1.65833 3.04166 1.65833 4.04166V13.95C1.65833 14.7583 2.31666 15.5 3.12499 15.6L3.38333 15.6333C4.74999 15.8167 6.67499 16.3833 8.22499 17.0333C8.76666 17.2583 9.36666 16.85 9.36666 16.2583V4.66666C9.36666 4.34999 9.19999 4.07499 8.92499 3.92499ZM4.16666 6.44999H6.04166C6.38333 6.44999 6.66666 6.73333 6.66666 7.07499C6.66666 7.42499 6.38333 7.69999 6.04166 7.69999H4.16666C3.82499 7.69999 3.54166 7.42499 3.54166 7.07499C3.54166 6.73333 3.82499 6.44999 4.16666 6.44999ZM6.66666 10.2H4.16666C3.82499 10.2 3.54166 9.92499 3.54166 9.57499C3.54166 9.23333 3.82499 8.94999 4.16666 8.94999H6.66666C7.00833 8.94999 7.29166 9.23333 7.29166 9.57499C7.29166 9.92499 7.00833 10.2 6.66666 10.2Z" fill="#B0B7C3"/>
</svg>
