<svg width="20" height="20" viewBox="0 0 20 20" fill="none" xmlns="http://www.w3.org/2000/svg">
<path d="M18.0169 7.04183C17.1419 3.19183 13.7836 1.4585 10.8336 1.4585C10.8336 1.4585 10.8336 1.4585 10.8252 1.4585C7.88358 1.4585 4.51691 3.1835 3.64191 7.0335C2.66691 11.3335 5.30024 14.9752 7.68358 17.2668C8.56691 18.1168 9.70024 18.5418 10.8336 18.5418C11.9669 18.5418 13.1002 18.1168 13.9752 17.2668C16.3586 14.9752 18.9919 11.3418 18.0169 7.04183ZM10.8336 11.2168C9.38358 11.2168 8.20858 10.0418 8.20858 8.59183C8.20858 7.14183 9.38358 5.96683 10.8336 5.96683C12.2836 5.96683 13.4586 7.14183 13.4586 8.59183C13.4586 10.0418 12.2836 11.2168 10.8336 11.2168Z" fill="#B0B7C3"/>
</svg>
