<svg width="72" height="72" viewBox="0 0 72 72" fill="none" xmlns="http://www.w3.org/2000/svg">
<circle opacity="0.1" cx="36" cy="36" r="36" fill="#086420"/>
<path d="M45.5603 28.8534C44.9869 25.96 42.8403 24.6934 39.8536 24.6934H28.1469C24.6269 24.6934 22.2803 26.4534 22.2803 30.56V37.4267C22.2803 40.3867 23.4936 42.12 25.4936 42.8667C25.7869 42.9734 26.1069 43.0667 26.4403 43.12C26.9736 43.24 27.5469 43.2934 28.1469 43.2934H39.8669C43.3869 43.2934 45.7336 41.5334 45.7336 37.4267V30.56C45.7336 29.9334 45.6803 29.3734 45.5603 28.8534ZM27.3736 36C27.3736 36.5467 26.9203 37 26.3736 37C25.8269 37 25.3736 36.5467 25.3736 36V32C25.3736 31.4534 25.8269 31 26.3736 31C26.9203 31 27.3736 31.4534 27.3736 32V36ZM34.0003 37.52C32.0536 37.52 30.4803 35.9467 30.4803 34C30.4803 32.0534 32.0536 30.48 34.0003 30.48C35.9469 30.48 37.5203 32.0534 37.5203 34C37.5203 35.9467 35.9469 37.52 34.0003 37.52ZM42.6136 36C42.6136 36.5467 42.1603 37 41.6136 37C41.0669 37 40.6136 36.5467 40.6136 36V32C40.6136 31.4534 41.0669 31 41.6136 31C42.1603 31 42.6136 31.4534 42.6136 32V36Z" fill="#086420"/>
<path d="M49.734 34.5601V41.4267C49.734 45.5334 47.3873 47.3067 43.854 47.3067H32.1473C31.1473 47.3067 30.254 47.1601 29.4807 46.8667C28.854 46.6401 28.3073 46.3067 27.8673 45.8801C27.6273 45.6534 27.814 45.2934 28.1473 45.2934H39.854C44.7873 45.2934 47.7207 42.3601 47.7207 37.4401V30.5601C47.7207 30.2401 48.0807 30.0401 48.3073 30.2801C49.214 31.2401 49.734 32.6401 49.734 34.5601Z" fill="#086420"/>
</svg>
