<svg width="20" height="20" viewBox="0 0 20 20" fill="none" xmlns="http://www.w3.org/2000/svg">
<path d="M10.625 13.2666H11.1667C11.7083 13.2666 12.1583 12.7833 12.1583 12.1999C12.1583 11.4749 11.9 11.3333 11.475 11.1833L10.6333 10.8916V13.2666H10.625Z" fill="#B0B7C3"/>
<path d="M9.97514 1.58327C5.37514 1.59993 1.65014 5.3416 1.6668 9.9416C1.68347 14.5416 5.42514 18.2666 10.0251 18.2499C14.6251 18.2333 18.3501 14.4916 18.3335 9.8916C18.3168 5.2916 14.5751 1.57493 9.97514 1.58327ZM11.8835 9.99993C12.5335 10.2249 13.4085 10.7083 13.4085 12.1999C13.4085 13.4833 12.4001 14.5166 11.1668 14.5166H10.6251V14.9999C10.6251 15.3416 10.3418 15.6249 10.0001 15.6249C9.65847 15.6249 9.37514 15.3416 9.37514 14.9999V14.5166H9.07514C7.70847 14.5166 6.60014 13.3666 6.60014 11.9499C6.60014 11.6083 6.88347 11.3249 7.22514 11.3249C7.5668 11.3249 7.85014 11.6083 7.85014 11.9499C7.85014 12.6749 8.40014 13.2666 9.07514 13.2666H9.37514V10.4499L8.1168 9.99993C7.4668 9.77493 6.5918 9.2916 6.5918 7.79993C6.5918 6.5166 7.60014 5.48327 8.83347 5.48327H9.37514V4.99993C9.37514 4.65827 9.65847 4.37493 10.0001 4.37493C10.3418 4.37493 10.6251 4.65827 10.6251 4.99993V5.48327H10.9251C12.2918 5.48327 13.4001 6.63327 13.4001 8.04993C13.4001 8.3916 13.1168 8.67493 12.7751 8.67493C12.4335 8.67493 12.1501 8.3916 12.1501 8.04993C12.1501 7.32493 11.6001 6.73327 10.9251 6.73327H10.6251V9.54993L11.8835 9.99993Z" fill="#B0B7C3"/>
<path d="M7.8501 7.8084C7.8501 8.5334 8.10843 8.67507 8.53343 8.82507L9.3751 9.11673V6.7334H8.83343C8.29176 6.7334 7.8501 7.21673 7.8501 7.8084Z" fill="#B0B7C3"/>
</svg>
