<svg width="20" height="20" viewBox="0 0 20 20" fill="none" xmlns="http://www.w3.org/2000/svg">
<path d="M10.0003 1.6665C7.81699 1.6665 6.04199 3.4415 6.04199 5.62484C6.04199 7.7665 7.71699 9.49984 9.90033 9.57484C9.96699 9.5665 10.0337 9.5665 10.0837 9.57484C10.1003 9.57484 10.1087 9.57484 10.1253 9.57484C10.1337 9.57484 10.1337 9.57484 10.142 9.57484C12.2753 9.49984 13.9503 7.7665 13.9587 5.62484C13.9587 3.4415 12.1837 1.6665 10.0003 1.6665Z" fill="#B0B7C3"/>
<path d="M14.2328 11.7914C11.9078 10.2414 8.11615 10.2414 5.77448 11.7914C4.71615 12.4997 4.13281 13.4581 4.13281 14.4831C4.13281 15.5081 4.71615 16.4581 5.76615 17.1581C6.93281 17.9414 8.46615 18.3331 9.99948 18.3331C11.5328 18.3331 13.0661 17.9414 14.2328 17.1581C15.2828 16.4497 15.8661 15.4997 15.8661 14.4664C15.8578 13.4414 15.2828 12.4914 14.2328 11.7914Z" fill="#B0B7C3"/>
</svg>
