<svg width="20" height="20" viewBox="0 0 20 20" fill="none" xmlns="http://www.w3.org/2000/svg">
<path d="M16.8741 4.3625L11.4291 1.21833C10.54 0.705 9.43996 0.705 8.54163 1.21833L3.10579 4.3625C2.21663 4.87583 1.66663 5.82917 1.66663 6.865V13.135C1.66663 14.1617 2.21663 15.115 3.10579 15.6375L8.55079 18.7817C9.43996 19.295 10.54 19.295 11.4383 18.7817L16.8833 15.6375C17.7725 15.1242 18.3225 14.1708 18.3225 13.135V6.865C18.3133 5.82917 17.7633 4.885 16.8741 4.3625ZM9.98996 5.72833C11.1725 5.72833 12.1258 6.68167 12.1258 7.86417C12.1258 9.04667 11.1725 10 9.98996 10C8.80746 10 7.85413 9.04667 7.85413 7.86417C7.85413 6.69083 8.80746 5.72833 9.98996 5.72833ZM12.4466 14.2717H7.53329C6.79079 14.2717 6.35996 13.4467 6.77246 12.8325C7.39579 11.9067 8.60579 11.2833 9.98996 11.2833C11.3741 11.2833 12.5841 11.9067 13.2075 12.8325C13.62 13.4375 13.18 14.2717 12.4466 14.2717Z" fill="#B0B7C3"/>
</svg>
