<svg width="20" height="20" viewBox="0 0 20 20" fill="none" xmlns="http://www.w3.org/2000/svg">
<path d="M14.0251 13.0333C14.5835 12.6666 15.3168 13.0666 15.3168 13.7333V14.8083C15.3168 15.8666 14.4918 17 13.5001 17.3333L10.8418 18.2166C10.3751 18.375 9.6168 18.375 9.15847 18.2166L6.50014 17.3333C5.50014 17 4.68347 15.8666 4.68347 14.8083V13.725C4.68347 13.0666 5.4168 12.6666 5.9668 13.025L7.68347 14.1416C8.34181 14.5833 9.17514 14.8 10.0085 14.8C10.8418 14.8 11.6751 14.5833 12.3335 14.1416L14.0251 13.0333Z" fill="#B0B7C3"/>
<path d="M16.65 5.38338L11.6583 2.10838C10.7583 1.51671 9.27502 1.51671 8.37502 2.10838L3.35835 5.38338C1.75002 6.42504 1.75002 8.78338 3.35835 9.83338L4.69168 10.7L8.37502 13.1C9.27502 13.6917 10.7583 13.6917 11.6583 13.1L15.3167 10.7L16.4583 9.95004V12.5C16.4583 12.8417 16.7417 13.125 17.0833 13.125C17.425 13.125 17.7083 12.8417 17.7083 12.5V8.40004C18.0417 7.32504 17.7 6.07504 16.65 5.38338Z" fill="#B0B7C3"/>
</svg>
